<svg width="50" height="50" viewBox="0 0 50 50" fill="none" xmlns="http://www.w3.org/2000/svg">
<circle cx="25" cy="25" r="24.5" fill="white" stroke="#ECECEC"/>
<circle cx="34.7002" cy="31.5" r="5.4" stroke="#444444" stroke-width="1.2"/>
<path d="M32.6689 33.2647L33.2387 32.4656C33.5865 32.8282 34.1267 33.1316 34.8075 33.1316C35.3847 33.1316 35.6659 32.8652 35.6659 32.584C35.6659 32.2214 35.2071 32.1178 34.6669 31.9846C33.8603 31.7996 32.8243 31.5776 32.8243 30.4528C32.8243 29.6315 33.5347 28.9507 34.6965 28.9507C35.4809 28.9507 36.132 29.1875 36.6204 29.6389L36.0358 30.4084C35.6363 30.0384 35.1035 29.8683 34.6003 29.8683C34.1489 29.8683 33.8973 30.068 33.8973 30.364C33.8973 30.6822 34.3487 30.7858 34.8815 30.9116C35.6955 31.104 36.7314 31.3482 36.7314 32.4656C36.7314 33.3683 36.0876 34.0491 34.7557 34.0491C33.8085 34.0491 33.1277 33.7309 32.6689 33.2647Z" fill="#444444"/>
<path d="M34.2002 33.9829V34.9829H35.2002V33.9829H34.2002Z" fill="#444444"/>
<path d="M35.2002 29.0083V28.0083H34.2002V29.0083H35.2002Z" fill="#444444"/>
<path fill-rule="evenodd" clip-rule="evenodd" d="M26.5533 12.5H25.8033V13.25V17.9271H20.2067H19.4567V18.6771V25.1904H13.8633H13.1133V25.9404V33.1227H10.7002V34.6227H27.3047V33.1227H27.3033V14H32.1489V24H33.6489V13.25V12.5H32.8989H26.5533ZM14.6133 33.1227H19.4567V26.6904H14.6133V33.1227ZM20.9567 19.4271H25.8033V33.1227H20.9567V19.4271Z" fill="#444444"/>
</svg>
