<?xml version="1.0" standalone="no"?>
<!DOCTYPE svg PUBLIC "-//W3C//DTD SVG 20010904//EN"
 "http://www.w3.org/TR/2001/REC-SVG-20010904/DTD/svg10.dtd">
<svg version="1.0" xmlns="http://www.w3.org/2000/svg"
 width="700.000000pt" height="620.000000pt" viewBox="0 0 700.000000 620.000000"
 preserveAspectRatio="xMidYMid meet">

<g transform="translate(0.000000,620.000000) scale(0.100000,-0.100000)"
fill="#000000" stroke="none">
<path d="M1215 5711 c-46 -21 -79 -54 -94 -94 -8 -20 -11 -729 -11 -2346 0
-2599 -7 -2368 76 -2460 24 -27 65 -59 91 -72 l48 -24 2200 -3 c1544 -2 2211
0 2237 8 48 14 97 55 114 97 34 81 0 180 -76 220 -42 22 -51 23 -297 23 l-253
0 0 1490 0 1490 137 0 c127 0 139 2 179 25 72 42 102 133 69 211 -24 58 -788
969 -829 988 -44 21 -118 21 -162 0 -24 -12 -148 -153 -423 -483 -213 -256
-396 -480 -405 -498 -37 -73 -5 -175 68 -218 40 -23 52 -25 179 -25 l137 0 0
-1490 0 -1490 -465 0 -465 0 0 844 0 844 133 4 c154 4 193 17 235 81 31 47 35
124 10 172 -26 48 -781 948 -813 969 -41 27 -107 32 -160 12 -40 -16 -82 -63
-435 -486 -215 -258 -397 -481 -405 -497 -19 -36 -19 -116 0 -152 20 -39 69
-78 113 -91 20 -5 90 -10 155 -10 l117 0 0 -845 0 -845 -380 0 -380 0 0 2263
c0 2174 -1 2264 -19 2302 -22 48 -44 69 -94 90 -48 20 -83 19 -132 -4z"/>
</g>
</svg>
