<?xml version="1.0" encoding="UTF-8"?>
<svg width="700pt" height="700pt" version="1.1" viewBox="0 0 700 700" xmlns="http://www.w3.org/2000/svg">
 <g>
  <path d="m428.75 307.14c-14.277 2.9297-26.16 12.777-31.688 26.266-5.5312 13.488-3.9805 28.84 4.1367 40.949 8.1133 12.109 21.727 19.379 36.301 19.395h17.5c4.832 0 8.75 3.918 8.75 8.75s-3.918 8.75-8.75 8.75h-43.75c-6.2539 0-12.031 3.3359-15.156 8.75s-3.125 12.086 0 17.5 8.9023 8.75 15.156 8.75h17.5v8.75c0 6.2539 3.3359 12.031 8.75 15.156s12.086 3.125 17.5 0 8.75-8.9023 8.75-15.156v-9.6406c14.277-2.9297 26.16-12.777 31.688-26.266 5.5312-13.488 3.9805-28.84-4.1367-40.949-8.1133-12.109-21.727-19.379-36.301-19.395h-17.5c-4.832 0-8.75-3.918-8.75-8.75s3.918-8.75 8.75-8.75h43.75c6.2539 0 12.031-3.3359 15.156-8.75s3.125-12.086 0-17.5-8.9023-8.75-15.156-8.75h-17.5v-8.75c0-6.2539-3.3359-12.031-8.75-15.156s-12.086-3.125-17.5 0-8.75 8.9023-8.75 15.156z"/>
  <path d="m114.71 488.25c45.898 22.723 96.16 35.262 147.35 36.75 3.0117 0 6.0547 0.10547 9.082 0.10547 36.219-0.050781 72.207-5.7617 106.66-16.922 40.531 21.105 88.52 22.41 130.14 3.5352 41.621-18.871 72.258-55.832 83.082-100.23 10.828-44.398 0.64453-91.309-27.617-127.22-28.262-35.914-71.461-56.848-117.16-56.766-2.957 0-5.8281 0.28125-8.75 0.4375v-122.94c0-48.09-86.188-70-166.25-70s-166.25 21.91-166.25 70v367.5c-0.015625 3.2695 0.88672 6.4805 2.6055 9.2656 1.7148 2.7812 4.1797 5.0273 7.1055 6.4844zm287.79-254.78c-2.9219 1.3281-5.8984 2.5742-8.8711 3.8164-4.0781 1.5586-8.0508 3.2891-11.953 5.1641v-0.003907c-32.707 12.27-67.215 19.043-102.13 20.055-48.09 1.1445-95.805-8.6562-139.55-28.664v-83.789c41.379 17.875 86.195 26.395 131.25 24.953 45.055 1.4414 89.871-7.0781 131.25-24.953zm-105 142.78c0 2.5898 0.26172 5.1289 0.38672 7.6992-5.8633 0.52344-11.988 0.89062-18.34 1.0508-48.078 1.0898-95.781-8.6992-139.55-28.629v-84.492c41.703 16.875 86.262 25.57 131.25 25.621 3.0117 0 6.0742 0 9.1367-0.12109 14.125-0.40234 28.219-1.6719 42.191-3.8008-16.41 24.445-25.145 53.23-25.078 82.672zm-34.527 113.75c-42.48-1.2461-84.285-10.949-122.97-28.543v-67.043c41.77 16.902 86.398 25.621 131.46 25.691 2.9766 0 5.9844 0 9.0117-0.10547 8.0859-0.22656 15.75-0.78906 23.223-1.5234 7.125 23.992 20.188 45.797 37.977 63.402-25.789 6.0039-52.23 8.7344-78.699 8.1211zm297.03-113.75c0.035156 27.113-9.6172 53.348-27.215 73.973-17.602 20.629-41.988 34.289-68.77 38.523s-54.191-1.2344-77.297-15.426c-23.105-14.191-40.379-36.168-48.715-61.969-8.332-25.801-7.1758-53.73 3.2656-78.754 10.438-25.023 29.473-45.496 53.672-57.727 6.0898-2.332 12.105-4.7969 18.043-7.3867v0.003906c34.484-10.547 71.926-4.1172 100.92 17.328 28.988 21.449 46.094 55.371 46.098 91.434zm-288.75-306.25c85.262 0 131.25 24.832 131.25 35s-45.988 35-131.25 35-131.25-24.832-131.25-35 45.988-35 131.25-35z"/>
 </g>
</svg>
