<?xml version="1.0" encoding="UTF-8"?>
<svg width="700pt" height="700pt" version="1.1" viewBox="0 0 700 700" xmlns="http://www.w3.org/2000/svg">
 <g>
  <path d="m542.5 525h-385c-13.926 0-27.277-5.5312-37.125-15.375-9.8438-9.8477-15.375-23.199-15.375-37.125v-227.5c0-13.926 5.5312-27.277 15.375-37.125 9.8477-9.8438 23.199-15.375 37.125-15.375h385c13.926 0 27.277 5.5312 37.125 15.375 9.8438 9.8477 15.375 23.199 15.375 37.125v227.5c0 13.926-5.5312 27.277-15.375 37.125-9.8477 9.8438-23.199 15.375-37.125 15.375zm-385-297.5c-4.6406 0-9.0938 1.8438-12.375 5.125s-5.125 7.7344-5.125 12.375v227.5c0 4.6406 1.8438 9.0938 5.125 12.375s7.7344 5.125 12.375 5.125h385c4.6406 0 9.0938-1.8438 12.375-5.125s5.125-7.7344 5.125-12.375v-227.5c0-4.6406-1.8438-9.0938-5.125-12.375s-7.7344-5.125-12.375-5.125z"/>
  <path d="m139.84 229.43c-5.375 0.011719-10.457-2.4453-13.785-6.6641-3.3281-4.2227-4.5312-9.7344-3.2656-14.961 1.2656-5.2227 4.8633-9.5742 9.7539-11.801l332.32-152.14c8.4375-3.8711 18.07-4.2305 26.773-0.99609 8.707 3.2344 15.77 9.793 19.637 18.234l64.75 141.61c2.4102 5.6523 1.6836 12.152-1.9219 17.133-3.6016 4.9766-9.5508 7.6992-15.676 7.1719-6.1211-0.52734-11.52-4.2266-14.219-9.7461l-64.715-141.57-332.39 152.14c-2.2773 1.0508-4.7539 1.5938-7.2617 1.5938z"/>
  <path d="m350 446.25c-23.207 0-45.461-9.2188-61.871-25.629s-25.629-38.664-25.629-61.871 9.2188-45.461 25.629-61.871 38.664-25.629 61.871-25.629 45.461 9.2188 61.871 25.629 25.629 38.664 25.629 61.871c-0.027344 23.199-9.2539 45.438-25.66 61.84-16.402 16.406-38.641 25.633-61.84 25.66zm0-140c-13.926 0-27.277 5.5312-37.125 15.375-9.8438 9.8477-15.375 23.199-15.375 37.125s5.5312 27.277 15.375 37.125c9.8477 9.8438 23.199 15.375 37.125 15.375s27.277-5.5312 37.125-15.375c9.8438-9.8477 15.375-23.199 15.375-37.125s-5.5312-27.277-15.375-37.125c-9.8477-9.8438-23.199-15.375-37.125-15.375z"/>
  <path d="m122.5 332.5c-6.2539 0-12.031-3.3359-15.156-8.75s-3.125-12.086 0-17.5 8.9023-8.75 15.156-8.75c18.566 0 36.371-7.375 49.496-20.504 13.129-13.125 20.504-30.93 20.504-49.496 0.039062-4.6328-0.41016-9.2539-1.3477-13.789-1.3242-6.1133 0.71094-12.465 5.3398-16.672 4.6289-4.2031 11.152-5.6172 17.105-3.707 5.957 1.9062 10.441 6.8477 11.766 12.957 1.4609 6.9766 2.1758 14.086 2.1367 21.211-0.027344 27.84-11.098 54.531-30.785 74.215-19.684 19.688-46.375 30.758-74.215 30.785z"/>
  <path d="m209.49 525c-0.75 0.003906-1.4961-0.042969-2.2383-0.14062-4.6055-0.58984-8.7891-2.9844-11.625-6.6562-2.8398-3.6719-4.1055-8.3203-3.5156-12.926 0.26562-2.1641 0.39453-4.3438 0.38672-6.5273 0-18.566-7.375-36.371-20.504-49.496-13.125-13.129-30.93-20.504-49.496-20.504-6.2539 0-12.031-3.3359-15.156-8.75s-3.125-12.086 0-17.5 8.9023-8.75 15.156-8.75c27.84 0.027344 54.531 11.098 74.215 30.785 19.688 19.684 30.758 46.375 30.785 74.215 0.003906 3.668-0.21875 7.332-0.66406 10.973-0.54297 4.2188-2.5977 8.0977-5.793 10.91-3.1914 2.8086-7.2969 4.3633-11.551 4.3672z"/>
  <path d="m577.5 332.5c-27.84-0.027344-54.531-11.098-74.215-30.785-19.688-19.684-30.758-46.375-30.785-74.215-0.039062-7.125 0.67578-14.234 2.1367-21.211 1.3242-6.1094 5.8086-11.051 11.766-12.957 5.9531-1.9102 12.477-0.49609 17.105 3.707 4.6289 4.207 6.6641 10.559 5.3398 16.672-0.9375 4.5352-1.3867 9.1562-1.3477 13.789 0 18.566 7.375 36.371 20.504 49.496 13.125 13.129 30.93 20.504 49.496 20.504 6.2539 0 12.031 3.3359 15.156 8.75s3.125 12.086 0 17.5-8.9023 8.75-15.156 8.75z"/>
  <path d="m490.51 525c-4.2539-0.003906-8.3594-1.5586-11.551-4.3672-3.1953-2.8125-5.25-6.6914-5.793-10.91-0.44531-3.6406-0.66797-7.3047-0.66406-10.973 0.027344-27.84 11.098-54.531 30.785-74.215 19.684-19.688 46.375-30.758 74.215-30.785 6.2539 0 12.031 3.3359 15.156 8.75s3.125 12.086 0 17.5-8.9023 8.75-15.156 8.75c-18.566 0-36.371 7.375-49.496 20.504-13.129 13.125-20.504 30.93-20.504 49.496-0.007812 2.1836 0.12109 4.3633 0.38672 6.5273 0.58984 4.6055-0.67578 9.2539-3.5156 12.926-2.8359 3.6719-7.0195 6.0664-11.625 6.6562-0.74219 0.097656-1.4883 0.14453-2.2383 0.14062z"/>
 </g>
</svg>
