<?xml version="1.0" standalone="no"?>
<!DOCTYPE svg PUBLIC "-//W3C//DTD SVG 20010904//EN"
 "http://www.w3.org/TR/2001/REC-SVG-20010904/DTD/svg10.dtd">
<svg version="1.0" xmlns="http://www.w3.org/2000/svg"
 width="700.000000pt" height="620.000000pt" viewBox="0 0 700.000000 620.000000"
 preserveAspectRatio="xMidYMid meet">

<g transform="translate(0.000000,620.000000) scale(0.100000,-0.100000)"
fill="#000000" stroke="none">
<path d="M3850 5903 c-51 -27 -60 -52 -60 -184 0 -78 -4 -121 -13 -133 -7 -10
-54 -35 -103 -55 -183 -76 -303 -180 -374 -326 -90 -185 -94 -402 -9 -572 85
-169 244 -284 592 -427 165 -67 267 -129 298 -179 12 -20 19 -50 19 -80 0
-108 -69 -165 -225 -186 -118 -16 -313 24 -476 100 -161 74 -180 60 -248 -181
-46 -163 -49 -192 -21 -237 34 -57 231 -135 421 -168 52 -9 97 -19 101 -23 3
-4 8 -65 10 -135 l3 -129 37 -34 38 -34 154 0 c140 0 156 2 180 21 45 35 51
57 56 204 6 160 -7 141 127 190 193 71 357 240 424 435 31 91 37 251 14 354
-32 145 -129 302 -243 391 -68 54 -242 145 -401 210 -141 57 -142 57 -217 108
-70 46 -94 79 -94 132 0 92 64 136 208 143 147 7 217 -8 446 -94 45 -17 86
-11 111 16 19 21 59 136 95 276 l24 91 -20 38 c-14 26 -35 47 -65 62 -64 32
-191 71 -289 88 -55 10 -89 21 -97 32 -8 10 -13 50 -13 102 0 179 -17 194
-220 199 -115 2 -140 0 -170 -15z"/>
<path d="M5794 3139 c-69 -11 -133 -40 -179 -81 -66 -57 -685 -757 -685 -773
0 -51 -37 -182 -72 -254 -52 -110 -168 -229 -275 -284 -140 -73 -174 -77 -630
-77 -446 0 -445 0 -483 63 -40 65 -16 165 47 198 22 11 112 15 443 19 l415 5
57 27 c110 51 187 153 210 276 22 117 -39 265 -138 335 -107 75 -67 71 -769
77 l-630 6 -130 46 c-188 66 -288 82 -493 75 -134 -4 -186 -10 -262 -30 -175
-46 -341 -126 -483 -234 -61 -46 -957 -930 -957 -944 0 -4 264 -265 586 -580
l586 -572 166 166 167 167 1035 2 1035 3 75 23 c152 47 305 137 402 238 20 22
327 372 683 779 480 550 653 755 675 800 85 170 20 384 -146 481 -36 21 -159
56 -189 53 -5 -1 -33 -5 -61 -10z"/>
</g>
</svg>
